<mxfile host="app.diagrams.net" agent="Mozilla/5.0 (Macintosh; Intel Mac OS X 10_15_7) AppleWebKit/537.36 (KHTML, like Gecko) Chrome/132.0.0.0 Safari/537.36" version="26.0.10">
  <diagram name="Page-1" id="03018318-947c-dd8e-b7a3-06fadd420f32">
    <mxGraphModel dx="1207" dy="765" grid="1" gridSize="10" guides="1" tooltips="1" connect="1" arrows="1" fold="1" page="1" pageScale="1" pageWidth="1100" pageHeight="850" background="none" math="0" shadow="0">
      <root>
        <mxCell id="0" />
        <mxCell id="1" parent="0" />
        <mxCell id="677b7b8949515195-1" value="" style="whiteSpace=wrap;html=1;rounded=0;shadow=0;labelBackgroundColor=none;strokeColor=#000000;strokeWidth=1;fillColor=none;fontFamily=Verdana;fontSize=12;fontColor=#000000;align=center;comic=1;" parent="1" vertex="1">
          <mxGeometry x="20" y="40" width="1060" height="540" as="geometry" />
        </mxCell>
        <mxCell id="q4BZEvWAXVgxHDnkbYNj-131" value="Edit" style="rounded=1;fillColor=#0057D8;strokeColor=none;html=1;whiteSpace=wrap;fontColor=#ffffff;align=center;verticalAlign=middle;fontStyle=0;fontSize=12;sketch=0;" parent="1" vertex="1">
          <mxGeometry x="62" y="513.5" width="86" height="33" as="geometry" />
        </mxCell>
        <mxCell id="zX-MKMj06BqSPDNbv460-1" value="&lt;font style=&quot;font-size: 18px;&quot;&gt;companyitassets/assets/hardware/25&lt;/font&gt;" style="html=1;strokeWidth=1;shadow=0;dashed=0;shape=mxgraph.ios7ui.url;fillColor=#e0e0e0;strokeColor=#c0c0c0;buttonText=;strokeColor2=#222222;fontColor=#222222;fontSize=8;spacingTop=2;align=center;whiteSpace=wrap;" parent="1" vertex="1">
          <mxGeometry x="20" width="1050" height="32.5" as="geometry" />
        </mxCell>
        <mxCell id="qXXK7IakLX90gNUS_IdI-1" value="&lt;font style=&quot;font-size: 20px;&quot;&gt;Asset Details&lt;/font&gt;" style="text;strokeColor=none;fillColor=none;html=1;fontSize=24;fontStyle=1;verticalAlign=middle;align=center;" parent="1" vertex="1">
          <mxGeometry x="50" y="60" width="170" height="40" as="geometry" />
        </mxCell>
        <UserObject label="Asset Type" placeholders="1" name="Variable" id="qXXK7IakLX90gNUS_IdI-4">
          <mxCell style="text;html=1;strokeColor=none;fillColor=none;align=left;verticalAlign=middle;whiteSpace=wrap;overflow=hidden;" parent="1" vertex="1">
            <mxGeometry x="70" y="180" width="70" height="20" as="geometry" />
          </mxCell>
        </UserObject>
        <UserObject label="&lt;font style=&quot;font-size: 14px;&quot;&gt;Monitor&lt;/font&gt;" placeholders="1" name="Variable" id="qXXK7IakLX90gNUS_IdI-5">
          <mxCell style="text;html=1;strokeColor=none;fillColor=none;align=left;verticalAlign=middle;whiteSpace=wrap;overflow=hidden;" parent="1" vertex="1">
            <mxGeometry x="70" y="200" width="110" height="20" as="geometry" />
          </mxCell>
        </UserObject>
        <UserObject label="Manufacturer" placeholders="1" name="Variable" id="qXXK7IakLX90gNUS_IdI-6">
          <mxCell style="text;html=1;strokeColor=none;fillColor=none;align=left;verticalAlign=middle;whiteSpace=wrap;overflow=hidden;" parent="1" vertex="1">
            <mxGeometry x="220" y="180" width="90" height="20" as="geometry" />
          </mxCell>
        </UserObject>
        <UserObject label="&lt;font style=&quot;font-size: 14px;&quot;&gt;Dell&lt;/font&gt;" placeholders="1" name="Variable" id="qXXK7IakLX90gNUS_IdI-7">
          <mxCell style="text;html=1;strokeColor=none;fillColor=none;align=left;verticalAlign=middle;whiteSpace=wrap;overflow=hidden;" parent="1" vertex="1">
            <mxGeometry x="220" y="200" width="110" height="20" as="geometry" />
          </mxCell>
        </UserObject>
        <UserObject label="&lt;font style=&quot;font-size: 14px;&quot;&gt;DM2A-4&lt;/font&gt;" placeholders="1" name="Variable" id="qXXK7IakLX90gNUS_IdI-8">
          <mxCell style="text;html=1;strokeColor=none;fillColor=none;align=left;verticalAlign=middle;whiteSpace=wrap;overflow=hidden;" parent="1" vertex="1">
            <mxGeometry x="70" y="140" width="110" height="20" as="geometry" />
          </mxCell>
        </UserObject>
        <UserObject label="Model Nr." placeholders="1" name="Variable" id="qXXK7IakLX90gNUS_IdI-9">
          <mxCell style="text;html=1;strokeColor=none;fillColor=none;align=left;verticalAlign=middle;whiteSpace=wrap;overflow=hidden;" parent="1" vertex="1">
            <mxGeometry x="70" y="120" width="90" height="20" as="geometry" />
          </mxCell>
        </UserObject>
        <UserObject label="Status" placeholders="1" name="Variable" id="qXXK7IakLX90gNUS_IdI-10">
          <mxCell style="text;html=1;strokeColor=none;fillColor=none;align=left;verticalAlign=middle;whiteSpace=wrap;overflow=hidden;" parent="1" vertex="1">
            <mxGeometry x="70" y="240" width="90" height="20" as="geometry" />
          </mxCell>
        </UserObject>
        <UserObject label="&lt;font style=&quot;font-size: 14px;&quot;&gt;In Use&lt;/font&gt;" placeholders="1" name="Variable" id="qXXK7IakLX90gNUS_IdI-11">
          <mxCell style="text;html=1;strokeColor=none;fillColor=none;align=left;verticalAlign=middle;whiteSpace=wrap;overflow=hidden;" parent="1" vertex="1">
            <mxGeometry x="70" y="260" width="110" height="20" as="geometry" />
          </mxCell>
        </UserObject>
        <UserObject label="&lt;font style=&quot;font-size: 14px;&quot;&gt;Dep. 2A&lt;/font&gt;" placeholders="1" name="Variable" id="qXXK7IakLX90gNUS_IdI-12">
          <mxCell style="text;html=1;strokeColor=none;fillColor=none;align=left;verticalAlign=middle;whiteSpace=wrap;overflow=hidden;" parent="1" vertex="1">
            <mxGeometry x="216" y="260" width="110" height="20" as="geometry" />
          </mxCell>
        </UserObject>
        <UserObject label="Location" placeholders="1" name="Variable" id="qXXK7IakLX90gNUS_IdI-13">
          <mxCell style="text;html=1;strokeColor=none;fillColor=none;align=left;verticalAlign=middle;whiteSpace=wrap;overflow=hidden;" parent="1" vertex="1">
            <mxGeometry x="216" y="240" width="90" height="20" as="geometry" />
          </mxCell>
        </UserObject>
        <UserObject label="Purchase Date" placeholders="1" name="Variable" id="qXXK7IakLX90gNUS_IdI-14">
          <mxCell style="text;html=1;strokeColor=none;fillColor=none;align=left;verticalAlign=middle;whiteSpace=wrap;overflow=hidden;" parent="1" vertex="1">
            <mxGeometry x="70" y="295" width="90" height="20" as="geometry" />
          </mxCell>
        </UserObject>
        <UserObject label="&lt;span style=&quot;font-size: 14px;&quot;&gt;21-03-2022&lt;/span&gt;" placeholders="1" name="Variable" id="qXXK7IakLX90gNUS_IdI-15">
          <mxCell style="text;html=1;strokeColor=none;fillColor=none;align=left;verticalAlign=middle;whiteSpace=wrap;overflow=hidden;" parent="1" vertex="1">
            <mxGeometry x="70" y="315" width="110" height="20" as="geometry" />
          </mxCell>
        </UserObject>
        <UserObject label="Purchase Price" placeholders="1" name="Variable" id="qXXK7IakLX90gNUS_IdI-16">
          <mxCell style="text;html=1;strokeColor=none;fillColor=none;align=left;verticalAlign=middle;whiteSpace=wrap;overflow=hidden;" parent="1" vertex="1">
            <mxGeometry x="216" y="295" width="90" height="20" as="geometry" />
          </mxCell>
        </UserObject>
        <UserObject label="&lt;span style=&quot;font-size: 14px;&quot;&gt;$85,99&lt;/span&gt;" placeholders="1" name="Variable" id="qXXK7IakLX90gNUS_IdI-17">
          <mxCell style="text;html=1;strokeColor=none;fillColor=none;align=left;verticalAlign=middle;whiteSpace=wrap;overflow=hidden;" parent="1" vertex="1">
            <mxGeometry x="216" y="315" width="110" height="20" as="geometry" />
          </mxCell>
        </UserObject>
        <mxCell id="qXXK7IakLX90gNUS_IdI-18" value="Go Back" style="html=1;shadow=0;dashed=0;shape=mxgraph.bootstrap.rrect;rSize=5;strokeColor=none;strokeWidth=1;fillColor=none;fontColor=#0085FC;whiteSpace=wrap;align=center;verticalAlign=middle;spacingLeft=0;fontStyle=0;fontSize=16;spacing=5;" parent="1" vertex="1">
          <mxGeometry x="172" y="510" width="70" height="40" as="geometry" />
        </mxCell>
        <mxCell id="qXXK7IakLX90gNUS_IdI-19" value="Delete" style="rounded=1;fillColor=#e51400;strokeColor=#B20000;html=1;whiteSpace=wrap;fontColor=#ffffff;align=center;verticalAlign=middle;fontStyle=0;fontSize=12;sketch=0;" parent="1" vertex="1">
          <mxGeometry x="952" y="513.5" width="86" height="33" as="geometry" />
        </mxCell>
        <UserObject label="Serial Nr." placeholders="1" name="Variable" id="10XDzdRVasA_GGK3fKtw-1">
          <mxCell style="text;html=1;strokeColor=none;fillColor=none;align=left;verticalAlign=middle;whiteSpace=wrap;overflow=hidden;" parent="1" vertex="1">
            <mxGeometry x="70" y="360" width="90" height="20" as="geometry" />
          </mxCell>
        </UserObject>
        <UserObject label="&lt;span style=&quot;font-size: 14px;&quot;&gt;AB23-DC65-E2F3&lt;/span&gt;" placeholders="1" name="Variable" id="10XDzdRVasA_GGK3fKtw-2">
          <mxCell style="text;html=1;strokeColor=none;fillColor=none;align=left;verticalAlign=middle;whiteSpace=wrap;overflow=hidden;" parent="1" vertex="1">
            <mxGeometry x="70" y="380" width="160" height="20" as="geometry" />
          </mxCell>
        </UserObject>
        <mxCell id="HvOkV9DAVzlVYlPNYd1M-1" value="Assign Employee" style="html=1;shadow=0;dashed=0;shape=mxgraph.bootstrap.rrect;rSize=5;strokeColor=none;strokeWidth=1;fillColor=none;fontColor=#0085FC;whiteSpace=wrap;align=left;verticalAlign=middle;spacingLeft=0;fontStyle=0;fontSize=16;spacing=5;" parent="1" vertex="1">
          <mxGeometry x="90" y="420" width="168" height="40" as="geometry" />
        </mxCell>
        <mxCell id="qXCED1NnwAtGf8v3lufe-1" value="Assign Department" style="html=1;shadow=0;dashed=0;shape=mxgraph.bootstrap.rrect;rSize=5;strokeColor=none;strokeWidth=1;fillColor=none;fontColor=#0085FC;whiteSpace=wrap;align=left;verticalAlign=middle;spacingLeft=0;fontStyle=0;fontSize=16;spacing=5;" vertex="1" parent="1">
          <mxGeometry x="90" y="455" width="168" height="40" as="geometry" />
        </mxCell>
        <mxCell id="qXCED1NnwAtGf8v3lufe-2" value="" style="rounded=0;whiteSpace=wrap;html=1;fillColor=none;" vertex="1" parent="1">
          <mxGeometry x="70" y="420" width="200" height="80" as="geometry" />
        </mxCell>
      </root>
    </mxGraphModel>
  </diagram>
</mxfile>
